# xmcd CD database file
#
# Track frame offsets:
#	150
#	18381
#	33012
#	48802
#	63833
#	82766
#	99405
#	111220
#	129729
#	149879
#	169922
#	187182
#	199797
#
# Disc length: 2812 seconds
#
# Revision: 0
# Processed by: cddbd v1.5.2PL0 Copyright (c) Steve Scherf et al.
# Submitted via: cdripper 1,0,39,0213
#
DISCID=af0afa0d
DTITLE=Susan Wong - Someone Like You
DYEAR=1900
DGENRE=Jazz
TTITLE0=Susan Wong - You Ve Got A Friend
TTITLE1=Susan Wong - True Love Ways
TTITLE2=Susan Wong - Over The Rainbow
TTITLE3=Susan Wong - What A Difference A Day Made
TTITLE4=Susan Wong - When You Say Nothing At All
TTITLE5=Susan Wong - The Other Side Of The Sun
TTITLE6=Susan Wong - Come Softly To Me
TTITLE7=Susan Wong - Make It With You
TTITLE8=Susan Wong - This Girl S In Love With You
TTITLE9=Susan Wong - How Deep Is Your Love
TTITLE10=Susan Wong - Someone Like You
TTITLE11=Susan Wong - You Send Me
TTITLE12=Susan Wong - Goodnight
EXTD=
EXTT0=
EXTT1=
EXTT2=
EXTT3=
EXTT4=
EXTT5=
EXTT6=
EXTT7=
EXTT8=
EXTT9=
EXTT10=
EXTT11=
EXTT12=
PLAYORDER=
